<svg width="493" height="28" viewBox="0 0 493 28" xmlns="http://www.w3.org/2000/svg" xmlns:xlink="http://www.w3.org/1999/xlink"><defs><path id="path-1" d="M.193.09H94.27v25.341H.193z"/><path id="path-3" d="M.677.653h38.65v20.53H.678z"/><path id="path-5" d="M.068.727h357.135v23.635H.068z"/></defs><g id="MIR-Global-Hmpg" stroke="none" stroke-width="1" fill="none" fill-rule="evenodd"><g id="Global-MIR-Hmpg" transform="translate(-55 -8)"><g id="School_of_Medicine_DIGITAL435_rev(RGB)" transform="translate(55 8)"><g id="Group-4" transform="translate(23.8 1.7)"><mask id="mask-2" fill="#fff"><use xlink:href="#path-1"/></mask><path d="M24.325.576c.36-.052.54-.188.54-.188 0-.242-.052-.296-.386-.296-.642 0-1.027.109-1.668.109-.694 0-1.233-.082-1.824-.082-.333 0-.307.108-.307.298 0 .214.641.08 1 .888.206.43.129 1.348-.076 1.887l-4.93 13.673L14.57 10.8l-.822-2.212s-.128.054.462-1.78L15.366 3.3C15.93 1.575 16.493.67 17.214.658c.907-.016.906-.566.212-.566-.693 0-1.11.054-1.727.054-.642 0-.975-.054-1.668-.054-.256 0-.54.08-.514.296.025.217.41.136.693.296.463.244.77 1.242.437 2.294l-1.36 4.394-1.541-4.098c-.308-.782-.715-2.502.03-2.658.72-.148.623-.524.185-.524-.846 0-1.294.109-2.116.109C8.947.2 8.28.09 7.432.09c-.179 0-.513.028-.41.379.051.214.487.135.745.297 1.027.673 1.232 1.537 1.59 2.507l2.26 6.445c.411 1.159.437.728.103 1.727L9.743 16.92 4.89 2.87c-.384-1.054-.589-1.782.258-2.186.359-.188.465-.225.513-.296.048-.07.092-.316-.436-.296C4.352.122 3.813.2 2.94.2 2.016.2 1.374.09.527.09.245.09.193.226.193.44c0 .326.692.109 1.284.809.333.378.976 1.646 1.129 2.106l5.861 17.023c.107.253.133.748.48.748.268-.002.321-.572.414-.788l3.077-8.542 3.005 8.117c.128.324.3 1.21.615 1.213.26 0 .354-.42.488-.826l5.802-16.784c.488-1.348 1.053-2.78 1.977-2.94" id="Fill-1" fill="#FFFFFE" mask="url(#mask-2)"/><path d="M88.993 20.034c-2.982 0-4.155-3.738-4.155-6.787 0-2.642 1.02-5.074 3.518-5.074 3.033 0 4.129 3.272 4.129 6.474 0 3.855-1.351 5.387-3.492 5.387zm-16.72-4.784c-2.047 0-2.73-2-2.73-3.888 0-1.95.58-3.561 2.629-3.561 2.076 0 2.906 2.151 2.906 4.04 0 1.922-.866 3.409-2.804 3.409zm-1.984 4.545c.207-.013.264.075 2.597.171 2.414.057 3.282.773 3.43 1.4.262 1.114-.522 3.504-3.986 3.272-2.179-.143-2.817-1.191-2.986-1.434-.812-1.163-.143-3.343.945-3.41zM88.74 7.249c-3.212 0-5.685 3.265-5.685 7.088 0 1.942.518 3.492 1.397 4.603-.304.21-.904.692-2.115.692-1.052 0-1.66-.632-1.714-1.997v-8.31l3.327-.01c.217 0 .64-1.437.654-1.512.038-.18.099-.325.118-.455.042-.275-.169-.296-.36-.007-.154.15-.315.546-.973.546h-2.76c0-2.398.026-3.485-.342-3.485-.353 0-.3.098-.62 1.165-.429 1.433-1.758 2.214-2.59 2.67a2.817 2.817 0 01-1.267.01c-.722-.159-1.576-1.045-3.76-1.045-2.341 0-4.389 1.935-4.389 4.528 0 1.398.612 2.744 1.69 3.457-.2.12-1.505 1.233-1.348 2.54 0 0-.026 1.355 1.027 1.812a3.092 3.092 0 00-.947.63c-.688-.255-1.696-.062-1.696-1.893v-5.06c0-2.332-.739-5.734-4.155-5.734-2.471 0-3.746 2.37-3.695 2.002V7.726c0-.307-.153-.49-.306-.49-.586 0-.713.984-2.86 1.543-.128.031-.415.099-.428.335 0 .644 1.721-.705 1.733 1.68v7.603c0 1.635-1.283 1.64-1.511 1.661-.09 0-.192.005-.304.006-.542-.053-1.485-.295-1.485-1.327V7.73c0-.307-.154-.49-.307-.49-.586 0-.963 1.079-2.594 1.63-.128.03-.363.056-.363.241 0 .643 1.465-.606 1.402 1.686v7.237c.054 1.767-.852 2.006-1.414 2.023-.679-.083-1.198-.362-1.198-1.41v-5.12c0-2.639-.994-6.041-4.256-6.041-1.454 0-2.701.808-3.67 1.91V.583c0-.306-.155-.481-.306-.49-.393-.025-1.051 1.187-2.912 1.615-.128.031-.606.07-.606.254 0 .644 1.93-.304 1.963 1.687v15.027c0 1.505-1.274 1.3-1.504 1.778-.04.21.076.307.255.307.408 0 1.529-.12 2.318-.12.792 0 2.067.12 2.601.12.306 0 .433-.06.433-.428-.266-.524-2.242.276-2.242-2.361V11.5c0-1.564 1.834-2.76 2.981-2.76.892 0 3.085.706 3.085 4.509v5.61c0 1.104-1.16 1.219-1.25 1.565 0 .245.153.335.408.335.281 0 1.096-.12 2.091-.12.556 0 1.058.029 1.48.054.23.045.56.052.97.053.28 0 .977-.107 1.793-.107.805 0 1.454.07 1.958.103.097.006.198.01.3.013.035.001.08.004.113.004h.006c.312.004.6 0 .72 0 .306 0 .816-.123 2.167-.123 1.477 0 1.987.122 2.42.122.383 0 .823-.172.561-.43-.41-.406-2.242.063-2.242-2.053v-7.053c-.025-.492.867-2.392 3.007-2.392 2.065 0 2.982 2.3 2.982 3.833v5.733c0 1.995-.793 1.54-1.096 1.995-.169.254.128.367.46.367.331 0 .866-.122 1.835-.122.917 0 1.503.065 1.882.1-.281.415-.478.892-.505 1.395-.137 2.494 2.887 3.386 5.426 3.353 5.037-.067 6.466-3.605 5.423-5.477-1.077-1.934-3.381-1.855-5.591-1.848-4.138.015-3.355-2.576-1.67-2.48.388.022.202.134 1.545.134 2.394 0 4.689-1.645 4.62-4.354-.005-.23.052-1.02-.525-2.13 1.12.005.675-.004 2.373-.002l-.007 7.589c0 3.428 1.615 4.01 2.825 4.01 1.719 0 2.967-1.144 3.19-1.679 1.01 1.093 2.42 1.679 4.054 1.679 3.135 0 5.506-2.923 5.506-6.746 0-5.782-3.594-6.932-5.531-6.932z" id="Fill-3" fill="#FFFFFE" mask="url(#mask-2)"/></g><path d="M128.923 20.452v-5.085c0-2.346-.736-5.768-4.134-5.768-2.46 0-3.729 2.384-3.679 2.015v-1.77c0-.309-.152-.494-.305-.494-.583 0-1.016 1.013-3.002 1.62-.126.03-.49.034-.503.268 0 .648 1.993-.84 1.958 1.69v7.647c0 2.006-1.32 1.521-1.62 2.045-.152.268.25.33.58.33.305 0 .812-.123 2.157-.123 1.472 0 1.978.123 2.409.123.381 0 .818-.17.558-.43-.407-.411-2.232.061-2.232-2.068V13.36c-.026-.493.863-2.404 2.993-2.404 2.055 0 2.968 2.312 2.968 3.855v5.765c-.025 2.263-.79 1.548-1.09 2.006-.169.255.127.369.456.369.33 0 .863-.123 1.826-.123 1.243 0 1.788.117 2.117.117.254 0 .714-.198.431-.433-.64-.527-1.904.277-1.888-2.059" id="Fill-5" fill="#FFFFFE"/><path d="M76.5 8.5c.263 0 .85-1.295.85-1.685 0-.389-.587-1.715-.85-1.715-.243 0-.85 1.36-.85 1.715 0 .357.607 1.685.85 1.685" id="Fill-6" fill="#FFFFFE"/><path d="M50.453 19.563c0 1.632-1.661 2.495-2.587 2.495-1.364 0-2.32-.886-2.32-2.64 0-2.71 3.26-3.202 4.907-3.634v3.779zm8.377-4.285c-.505-.241-1.262-.673-1.635-.877-1.615-.881-2.251-1.458-2.297-2.284-.074-1.427 1.14-2.168 2.194-2.065 2.521-.042 2.859 2.774 3.117 2.774.385 0 .283-.368.283-1.2 0-.215.025-1.26-.13-1.507-.308-.462-2.092-.732-2.528-.732-.111 0-.523-.013-.594-.015-.122-.004-.281.015-.281.015-1.796-.028-3.475 1.107-3.421 3.503.049 2.186 2.624 3.432 4.014 4.263 1.029.584 2.24 1.14 2.224 2.54-.02 1.598-1.26 2.657-2.595 2.568-3.129-.052-2.7-3.966-3.264-3.966-.385 0-.306.985-.308 1.507-.003.507-.01.972-.012 1.363-.063.358-.207.688-.541.709-1.231.073-.935-1.88-.935-2.926v-6.375c-.06-1.95-1.532-3.223-3.769-3.223-3.073 0-5.27 3.774-4.229 4.948.25.281 1.251-.798 1.312-.858a.256.256 0 00.073-.127c-.006-1.286.963-2.923 2.353-3.06 1.589-.158 2.381 1.027 2.381 2.63v2.075c-6.02 1.198-6.892 3.197-6.892 4.827 0 2.186 1.541 3.165 3.213 3.165 1.441 0 2.857-.677 3.937-1.785.334 1.016 1.004 1.629 2.008 1.599.348-.01.4.087 1.456-.37.366-.094.347-.089.767-.011.554.193 1.311.565 2.643.565 2.017.03 3.826-1.833 3.826-4.138 0-1.422-.415-2.323-2.37-3.532z" id="Fill-7" fill="#FFFFFE"/><path d="M233.663 11.564c-.746-.363-1.858-1.012-2.405-1.318-2.378-1.326-3.315-2.192-3.382-3.43-.112-2.148 2.05-3.42 3.599-3.265 1.964 0 3.587 1.157 4.257 3.632.068.26.315.866.562.866.222 0 .265-.203.242-.433l-.334-3.914c-.022-.318-.131-.404-.267-.404-.221 0-.359.317-.56.317-.313 0-1.106-1.088-3.81-1.064-.18-.006-.427.022-.427.022-2.64-.045-5.116 1.656-5.036 5.26.07 3.282 3.864 5.157 5.908 6.405 1.515.878 3.1 2.282 3.05 3.841-.077 2.4-1.63 3.972-3.595 3.837-4.604-.08-3.972-5.962-4.804-5.962-.567 0-.452 1.48-.455 2.264-.004 1.865-.08 3.392.14 3.663.07.087.292.046.74.046.908 0 2.015 1.022 4.664 1.022 2.967.046 5.4-2.615 5.4-6.081 0-2.133-.614-3.49-3.487-5.304" id="Fill-8" fill="#FFFFFE"/><path d="M376.549 8.5c.263 0 .851-1.295.851-1.685 0-.389-.588-1.715-.851-1.715-.243 0-.849 1.36-.849 1.715 0 .357.606 1.685.849 1.685" id="Fill-9" fill="#FFFFFE"/><path d="M389.852 20.452v-5.085c0-2.346-.746-5.768-4.18-5.768-2.486 0-3.77 2.384-3.716 2.015v-1.77c0-.309-.156-.494-.31-.494-.59 0-1.027 1.013-3.033 1.62-.128.03-.495.034-.509.268 0 .648 2.013-.84 1.979 1.69v7.647c0 1.435-.694 1.547-1.2 1.685-.034 0-.057-.006-.097.001-.514-.03-1.612-.233-1.612-1.346V9.845c0-.31-.154-.493-.308-.493-.588 0-.969 1.084-2.61 1.639-.128.03-.364.056-.364.243 0 .646 1.472-.61 1.409 1.695v7.278c.057 1.86-.949 2.039-1.503 2.039-.832-.011-.625.095-.625.356.026.308.526.33 1.35.334.283 0 .984-.107 1.804-.107 1.052 0 1.846.121 2.386.121.309 0 1.14-.123 2.497-.123 1.488 0 2.002.123 2.435.123.387 0 .829-.17.567-.43-.415-.411-2.256.061-2.256-2.068V13.36c-.026-.493.87-2.404 3.024-2.404 2.077 0 3 2.312 3 3.855v5.765c-.026 2.263-.8 1.548-1.103 2.006-.17.255.127.369.461.369.336 0 .871-.123 1.846-.123 1.255 0 1.807.117 2.14.117.256 0 .722-.198.436-.433-.648-.527-1.925.277-1.908-2.059" id="Fill-10" fill="#FFFFFE"/><path d="M405.449 8.5c.263 0 .851-1.295.851-1.685 0-.389-.588-1.715-.851-1.715-.242 0-.849 1.36-.849 1.715 0 .357.607 1.685.849 1.685" id="Fill-11" fill="#FFFFFE"/><path d="M419.602 20.452v-5.085c0-2.346-.745-5.768-4.18-5.768-2.485 0-3.768 2.384-3.715 2.015v-1.77c0-.309-.156-.494-.31-.494-.59 0-1.027 1.013-3.033 1.62-.128.03-.497.034-.51.268 0 .648 2.013-.84 1.98 1.69v7.647c0 1.435-.694 1.547-1.202 1.685-.032 0-.057-.006-.097.001-.514-.03-1.611-.233-1.611-1.346V9.845c0-.31-.154-.493-.306-.493-.59 0-.971 1.084-2.61 1.639-.13.03-.366.056-.366.243 0 .646 1.471-.61 1.41 1.695v7.278c.056 1.86-.949 2.039-1.504 2.039-.83-.011-.626.095-.626.356.028.308.527.33 1.351.334.283 0 .984-.107 1.805-.107 1.052 0 1.845.121 2.386.121.307 0 1.14-.123 2.496-.123 1.489 0 2.002.123 2.436.123.386 0 .829-.17.565-.43-.413-.411-2.254.061-2.254-2.068V13.36c-.028-.493.87-2.404 3.024-2.404 2.076 0 3 2.312 3 3.855v5.765c-.027 2.263-.8 1.548-1.103 2.006-.17.255.126.369.46.369.335 0 .872-.123 1.846-.123 1.256 0 1.807.117 2.14.117.257 0 .722-.198.436-.433-.647-.527-1.924.277-1.908-2.059" id="Fill-12" fill="#FFFFFE"/><path d="M444.549 19.55c-.242 0-.849 1.36-.849 1.716 0 .356.607 1.684.849 1.684.263 0 .851-1.294.851-1.684 0-.388-.588-1.716-.851-1.716" id="Fill-13" fill="#FFFFFE"/><path d="M477.2 20.858V10.116c0-.607-.327-.766-.418-.766-.373 0-.583.095-.838.159-.256.096-.555.235-1.229.235-.117 0-.76-.113-.72.246.039.36 1.497.153 1.508 1.217v7.77c-.114 1.356-1.21 2.853-2.534 2.853-.303 0-2.279-.223-2.256-3.616v-8.098c0-.607-.326-.766-.418-.766-.373 0-.582.095-.838.159-.255.096-.581.219-1.255.193-.36-.015-.759-.071-.695.288.057.318 1.51 0 1.51 1.217v7.455c0 2.721 1.532 4.288 3.393 4.288 1.232 0 2.372-.28 3.093-1.785h.046v1.307c0 .126.023.478.208.478.349 0 .537-.303.792-.399.279-.065.349-.33 1.218-.41.368-.034.783-.238.783-.495-.133-.544-1.35.043-1.35-.788" id="Fill-14" fill="#FFFFFE"/><path d="M463.09 22.076c-2.972 0-4.142-3.662-4.142-6.648 0-2.588 1.017-4.97 3.507-4.97 3.022 0 4.116 3.204 4.116 6.341 0 3.776-1.347 5.277-3.481 5.277zm-.254-12.524c-3.2 0-5.667 3.198-5.667 6.943 0 1.688.408 3.071 1.112 4.123-.781.556-2.189 1.074-4.867 1.074-2.094 0-1.895-.717-1.895-2.478V5.127c0-2.6 1.956-1.842 1.996-2.315.029-.328-.272-.255-.597-.255-.374 0-1.046.146-2.466.146-1.223 0-2.297-.115-2.82-.115-.324 0-.618.091-.509.338.244.555 2.096.052 2.096 1.603v14.714c0 1.404.212 2.302-.436 2.661-.797.478-1.727.502-1.65.811.05.193.44.204.665.204.996 0 2.376-.123 3.372-.152 1.897-.06 3.79.119 5.685.119 1.1 0 1.374-.22 2.171-1.295l.038-.048c.985.915 2.295 1.407 3.798 1.407 3.123 0 5.488-2.863 5.488-6.608 0-5.664-3.584-6.79-5.514-6.79z" id="Fill-15" fill="#FFFFFE"/><path d="M431.713 11.564c-.746-.363-1.858-1.012-2.405-1.318-2.378-1.326-3.316-2.192-3.382-3.43-.112-2.148 2.05-3.42 3.599-3.265 1.964 0 3.588 1.157 4.257 3.632.068.26.314.866.562.866.222 0 .267-.203.242-.433l-.334-3.914c-.023-.318-.131-.404-.268-.404-.22 0-.358.317-.56.317-.311 0-1.105-1.088-3.808-1.064a3.666 3.666 0 00-.428.022c-2.64-.045-5.117 1.656-5.036 5.26.07 3.282 3.863 5.157 5.908 6.405 1.515.878 3.1 2.282 3.05 3.841-.078 2.4-1.63 3.972-3.595 3.837-4.604-.08-3.972-5.962-4.804-5.962-.567 0-.452 1.48-.455 2.264-.004 1.865-.08 3.392.14 3.663.07.087.293.046.74.046.908 0 2.014 1.022 4.664 1.022 2.967.046 5.4-2.615 5.4-6.081 0-2.133-.614-3.49-3.487-5.304" id="Fill-16" fill="#FFFFFE"/><path d="M481.95 8.5c.265 0 .85-1.295.85-1.685 0-.389-.585-1.715-.85-1.715-.242 0-.85 1.36-.85 1.715 0 .357.608 1.685.85 1.685" id="Fill-17" fill="#FFFFFE"/><path d="M484.99 22.26c-.512-.03-1.605-.232-1.605-1.345V9.842c0-.309-.154-.492-.307-.492-.588 0-.965 1.084-2.6 1.639-.128.03-.363.056-.363.243 0 .646 1.466-.61 1.405 1.695v7.28c.057 1.86-.945 2.054-1.5 2.039-.575-.015-.62.094-.62.356.024.308.523.33 1.344.334.28 0 .98-.107 1.798-.107 1.047 0 1.838.121 2.374.121.332 0 .746-.804.073-.69" id="Fill-18" fill="#FFFFFE"/><path d="M490.637 15.267c-.505-.242-1.261-.675-1.635-.879-1.612-.884-2.248-1.462-2.293-2.289-.075-1.43 1.14-2.17 2.191-2.067 2.517-.045 2.854 2.777 3.11 2.777.386 0 .284-.37.284-1.202 0-.216.025-1.263-.129-1.51-.31-.46-2.09-.734-2.524-.734-.11 0-.523-.01-.594-.013a2.735 2.735 0 00-.281.013c-1.792-.029-3.467 1.11-3.415 3.512.05 2.188 2.622 3.436 4.007 4.27 1.028.584 2.237 1.142 2.222 2.545-.02 1.6-1.259 2.66-2.59 2.572-3.125-.052-2.698-3.973-3.26-3.973-.385 0-.306.986-.308 1.51-.005 1.239-.056 2.259.094 2.44.048.057.197.028.501.028.616 0 1.367.683 3.163.683 2.015.03 3.82-1.837 3.82-4.146 0-1.423-.412-2.327-2.363-3.537" id="Fill-19" fill="#FFFFFE"/><path d="M442.663 20.936c-.262.122-.858.749-2.28.749-1.073 0-1.694-.618-1.747-1.952V11.16l3.39-.008c.223 0 .654-1.405.67-1.477.037-.177.099-.32.118-.444.042-.27-.172-.294-.365-.01-.159.145-.323.534-.992.534h-2.818c0-2.342.028-2.954-.348-2.954-.36 0-.304.094-.632 1.139-.543 1.743-2.525 2.508-3.157 2.886-.154.074-.146.102-.152.19-.014.222.752.13 2.326.17l-.005 7.846c0 3.35 1.646 3.919 2.88 3.919 1.878 0 3.22-1.295 3.299-1.751 0-.261-.036-.286-.187-.263" id="Fill-20" fill="#FFFFFE"/><path d="M180.367 10.06c1.356 0 2.738 1.547 2.738 3.277 0 .464-.148.618-.494.618h-4.859c0-1.7 1.084-3.895 2.615-3.895zm4.834 9.738c-.542 0-1.356 1.608-3.478 1.608-1.506 0-3.97-1.517-3.97-6.617h6.562c.566 0 .837.032.837-.524 0-1.236-1.332-4.915-4.367-4.915-3.083 0-4.835 3.307-4.835 7.263 0 2.04 1.284 6.337 4.983 6.337 2.22 0 4.367-2.225 4.367-2.936 0-.093 0-.216-.099-.216z" id="Fill-21" fill="#FFFFFE"/><path d="M149.583 2.835c.097-.163-.243-.235-.353-.235-.4 0-1.324.103-1.745.103-.866 0-1.587-.084-2.453-.084-.067 0-.444.049-.445.177-.006.618 2.065-.104 2.065 2.53V15.64c0 3.049-.954 6.25-5.127 6.25-2.997 0-4.62-1.885-4.62-6.017V4.655c0-1.86 1.448-1.458 1.478-1.874.03-.397-1.281-.162-1.393-.162-.687 0-1.172.072-1.882.072-.6 0-1.326-.09-1.904-.09-.11 0-.519-.023-.587.143-.225.553 1.85.258 1.85 1.782v10.648c0 3.979 1.11 7.87 6.946 7.774 6.923-.117 6.792-6.378 6.792-7.643V5.353c0-2.376 1.157-2.15 1.378-2.518" id="Fill-22" fill="#FFFFFE"/><path d="M176.699 9.832c.165-.2.215-.526-.546-.457-.42 0-.736.076-1.156.076-.54 0-.643-.018-1.16-.038-.646-.023-.823.05-.784.251.11.6 1.47.014 1.286 1.78-.156 1.483-.617 2.759-1.085 4.025l-1.652 4.566-2.415-7.609c-.297-.95-.42-1.46-.42-1.553 0-.952 1.107-.733 1.351-1.134.156-.253-.167-.389-.512-.389-.296 0-.635.107-1.546.13-.756.02-1.292.015-1.623-.047-.85-.16-.781.327-.485.483.291.153.434.01.868 1.337l3.721 10.937c.076.221.173.76.495.76.371 0 .371-.38.837-1.68 0 0 3.559-10.358 3.804-10.733.481-.737.845-.495 1.022-.705" id="Fill-23" fill="#FFFFFE"/><g id="Group-27" transform="translate(184.45 5.95)"><mask id="mask-4" fill="#fff"><use xlink:href="#path-3"/></mask><path d="M6.666 3.61c-1.051 0-1.786 1.243-2.314 2.1h-.048V3.847c0-.296-.15-.474-.3-.474-.403 0-.712.793-2.845 1.287-.126.03-.482.098-.482.275 0 .623 1.803-.186 1.801 1.872v7.835c0 1.213-1.277 1.095-1.277 1.718 0 .176.075.264.276.264.175 0 .627-.117 2.3-.117 1.403 0 2.002.117 2.352.117.274 0 .4-.06.4-.325 0-.948-2.225.474-2.225-2.277V7.338c0-.385.6-1.745 1.626-1.745.9 0 1.011.68 1.486.68.3 0 .9-.888.9-1.332 0-.56-1.125-1.332-1.65-1.332" id="Fill-24" fill="#FFFFFE" mask="url(#mask-4)"/><path d="M38.933 3.706c-.268 0-.954.04-1.57.04-.753 0-1.122-.088-1.442-.088-.484 0-.949.005-.867.314.094.348 1.718.223 1.718 1.956 0 .221 0 .512-.323 1.663l-2.066 6.442-2.87-7.915s-.135-.255-.135-.77c0-1.28 1.528-1.14 1.589-1.369.048-.186-.21-.381-.612-.381-.43 0-1.062.003-2.011.003-.15 0-.288.001-.424.003l.001-.006h-1.158c-.017 0-.026.007-.045.007h-2.78c0-2.34.026-2.952-.345-2.952-.356 0-.302.096-.624 1.138-.536 1.741-2.493 2.505-3.117 2.883-.152.074-.145.102-.151.191-.013.22.744.131 2.299.169l-.008 7.837c0 3.346 1.625 3.914 2.844 3.914 1.856 0 3.181-1.292 3.258-1.749 0-.26-.033-.285-.184-.263-.258.123-.847.748-2.253.748-1.06 0-1.672-.617-1.725-1.949V5.008L29.106 5c.038.06.076.119.1.19l2.965 8.206c.242.673.385.892.675 2.08.192.776.12 1.466.12 1.466-.287 1.234-1.06 1.941-2.24 4.217-.114.22 1.702-.022 1.792-.049.146-.045.13-.085.306-.408l1.31-3.82 3.658-11.018c.535-1.924 1.385-1.573 1.514-1.836.077-.16-.051-.32-.373-.32" id="Fill-26" fill="#FFFFFE" mask="url(#mask-4)"/></g><path id="Fill-28" fill="#FFFFFE" d="M218.905 22.437l-.049.145-.01.031.059-.176"/><path d="M204 8.5c.264 0 .85-1.295.85-1.685 0-.389-.586-1.715-.85-1.715-.244 0-.85 1.36-.85 1.715 0 .357.606 1.685.85 1.685" id="Fill-29" fill="#FFFFFE"/><path d="M207.04 22.26c-.509-.03-1.597-.232-1.597-1.345V9.842c0-.309-.155-.492-.306-.492-.586 0-.96 1.084-2.59 1.639-.126.03-.36.056-.36.243 0 .646 1.46-.61 1.398 1.695v7.28c.056 1.86-.941 2.039-1.493 2.039-.825-.012-.62.094-.62.356.025.308.523.33 1.34.334.278 0 .976-.107 1.79-.107 1.044 0 1.833.121 2.366.121.331 0 .743-.804.072-.69" id="Fill-30" fill="#FFFFFE"/><path d="M339.317 10.06c1.357 0 2.738 1.547 2.738 3.277 0 .464-.147.618-.493.618h-4.859c0-1.7 1.084-3.895 2.614-3.895zm4.833 9.738c-.54 0-1.355 1.608-3.476 1.608-1.506 0-3.97-1.517-3.97-6.617h6.56c.567 0 .84.032.84-.524 0-1.236-1.333-4.915-4.367-4.915-3.085 0-4.837 3.307-4.837 7.263 0 2.04 1.284 6.337 4.984 6.337 2.22 0 4.366-2.225 4.366-2.936 0-.093 0-.216-.1-.216z" id="Fill-31" fill="#FFFFFE"/><path d="M395.417 10.06c1.356 0 2.737 1.547 2.737 3.277 0 .464-.146.618-.492.618h-4.86c0-1.7 1.085-3.895 2.615-3.895zm4.834 9.738c-.542 0-1.355 1.608-3.478 1.608-1.505 0-3.97-1.517-3.97-6.617h6.563c.565 0 .836.032.836-.524 0-1.236-1.331-4.915-4.366-4.915-3.084 0-4.836 3.307-4.836 7.263 0 2.04 1.283 6.337 4.984 6.337 2.22 0 4.366-2.225 4.366-2.936 0-.093 0-.216-.099-.216z" id="Fill-32" fill="#FFFFFE"/><path d="M360.4 8.5c.264 0 .85-1.295.85-1.685 0-.389-.586-1.715-.85-1.715-.243 0-.85 1.36-.85 1.715 0 .357.607 1.685.85 1.685" id="Fill-33" fill="#FFFFFE"/><path d="M363.439 22.26c-.51-.03-1.604-.232-1.604-1.345V9.842c0-.309-.154-.492-.307-.492-.587 0-.964 1.084-2.6 1.639-.127.03-.362.056-.362.243 0 .646 1.466-.61 1.404 1.695v7.28c.057 1.86-.945 2.053-1.499 2.039-.304-.008-.621.094-.621.356.025.308.525.33 1.345.334.28 0 .98-.107 1.798-.107 1.046 0 1.838.121 2.373.121.331 0 .747-.804.073-.69" id="Fill-34" fill="#FFFFFE"/><path d="M164.05 8.5c.263 0 .85-1.295.85-1.685 0-.389-.587-1.715-.85-1.715-.243 0-.85 1.36-.85 1.715 0 .357.607 1.685.85 1.685" id="Fill-35" fill="#FFFFFE"/><path d="M166.246 22.261c-.502-.03-1.571-.233-1.571-1.346V9.845c0-.31-.15-.493-.3-.493-.575 0-.945 1.084-2.544 1.639-.126.03-.356.056-.356.243 0 .646 1.435-.61 1.374 1.695v7.278c.055 1.86-.926 2.039-1.465 2.039-.068-.001-.12 0-.174.001-.523-.097-1.017-.32-1.005-1.795v-5.085c0-2.346-.727-5.768-4.075-5.768-2.426 0-3.676 2.384-3.626 2.015v-1.77c0-.309-.15-.494-.3-.494-.574 0-1.002 1.013-2.957 1.62-.126.03-.485.034-.497.268 0 .648 1.963-.84 1.93 1.69v7.647c0 2.006-1.302 1.521-1.597 2.045-.15.268.246.33.572.33.3 0 .8-.123 2.124-.123 1.451 0 1.95.123 2.375.123.376 0 .806-.17.55-.43-.402-.411-2.2.061-2.2-2.068V13.36c-.025-.493.85-2.404 2.951-2.404 2.023 0 2.923 2.312 2.923 3.855v5.765c-.025 2.263-.779 1.548-1.074 2.006-.167.255.123.369.449.369s.85-.123 1.8-.123c1.224 0 1.76.117 2.086.117a.695.695 0 00.123-.014c.106.003.205.006.328.006.275 0 .96-.107 1.759-.107 1.027 0 1.8.121 2.326.121.326 0 .73-.804.071-.689" id="Fill-36" fill="#FFFFFE"/><path d="M199.085 15.266c-.505-.24-1.26-.675-1.634-.878-1.61-.884-2.246-1.463-2.29-2.286-.076-1.434 1.137-2.173 2.19-2.07 2.514-.045 2.852 2.778 3.109 2.778.385 0 .283-.37.283-1.203 0-.216.026-1.263-.13-1.509-.307-.462-2.088-.732-2.524-.732-.11 0-.522-.013-.592-.016-.123-.003-.28.016-.28.016-1.793-.03-3.468 1.106-3.416 3.509.05 2.187 2.621 3.436 4.008 4.27 1.026.584 2.234 1.14 2.22 2.543-.019 1.602-1.26 2.663-2.59 2.575-3.124-.053-2.696-3.975-3.259-3.975-.385 0-.305.985-.307 1.51-.003 1.24-.055 2.26.094 2.442.047.056.198.028.5.028.615 0 1.368.682 3.164.682 2.012.03 3.819-1.836 3.819-4.148 0-1.42-.415-2.326-2.365-3.536" id="Fill-37" fill="#FFFFFE"/><path d="M260.707 22.085c-.015-.002.333.024.22-.342-.065-.22-.467-.306-.922-.347-.638-.057-1.11-.383-1.11-1.383v-5.054c0-2.604-.977-5.962-4.183-5.962-1.427 0-2.653.798-3.605 1.886V2.184c0-.302-.152-.475-.3-.484-.386-.024-1.033 1.172-2.861 1.595-.126.03-.596.069-.596.25 0 .636 1.897-.3 1.929 1.665v14.832c0 1.485-1.25 1.282-1.478 1.755-.039.207.075.303.25.303.401 0 1.503-.119 2.279-.119.777 0 2.03.119 2.555.119.3 0 .426-.06.426-.423-.262-.517-2.204.273-2.204-2.33V12.96c0-1.543 1.803-2.725 2.93-2.725.877 0 3.03.698 3.03 4.45v5.538c0 1.09-1.14 1.203-1.227 1.545 0 .242.15.331.4.331.276 0 1.077-.119 2.054-.119.546 0 1.04.029 1.454.053.226.045.55.051.952.052" id="Fill-38" fill="#FFFFFE"/><path d="M296.551 22.063c-2.937 0-4.093-3.717-4.093-6.749 0-2.626 1.006-5.045 3.467-5.045 2.986 0 4.066 3.254 4.066 6.437 0 3.834-1.331 5.357-3.44 5.357zm-4.745-1.46c.148.205.417.587.766.919.974.93 2.269 1.428 3.753 1.428 3.088 0 5.425-2.906 5.425-6.707 0-5.75-3.541-6.893-5.45-6.893-3.163 0-5.6 3.247-5.6 7.048 0 1.713.403 3.118 1.097 4.185l.01.02z" id="Fill-39" fill="#FFFFFE"/><path d="M277.852 22.063c-2.937 0-4.093-3.717-4.093-6.749 0-2.626 1.005-5.045 3.466-5.045 2.986 0 4.067 3.254 4.067 6.437 0 3.834-1.332 5.357-3.44 5.357zm-4.745-1.46c.147.205.417.587.765.919.974.93 2.269 1.428 3.753 1.428 3.088 0 5.425-2.906 5.425-6.707 0-5.75-3.541-6.893-5.45-6.893-3.163 0-5.6 3.247-5.6 7.048 0 1.713.404 3.118 1.1 4.185l.007.02z" id="Fill-40" fill="#FFFFFE"/><path d="M265.952 22.063c-2.938 0-4.094-3.717-4.094-6.749 0-2.626 1.005-5.045 3.466-5.045 2.987 0 4.068 3.254 4.068 6.437 0 3.834-1.331 5.357-3.44 5.357zm-4.746-1.46c.148.205.417.587.766.919.974.93 2.27 1.428 3.754 1.428 3.087 0 5.424-2.906 5.424-6.707 0-5.75-3.542-6.893-5.45-6.893-3.164 0-5.6 3.247-5.6 7.048 0 1.713.403 3.118 1.098 4.185l.008.02z" id="Fill-41" fill="#FFFFFE"/><path d="M237.15 16.399c0-3.865 2.584-7.049 6.189-7.049 1.43 0 3.374.433 3.458 1.145.06.679.03 1.422.03 1.822 0 .434-.085.65-.228.65-.286 0-.602-.588-.687-.71-.972-1.423-2.232-1.886-3.546-1.886-2.433 0-3.129 2.72-3.129 4.946 0 3.339 1.586 6.089 4.814 6.089 2.232 0 3.491-1.794 3.921-1.794.086 0 .228.093.228.186 0 .495-1.716 3.152-5.635 3.152-3.288 0-5.415-3.121-5.415-6.551" id="Fill-42" fill="#FFFFFE"/><path d="M362.95 16.399c0-3.865 2.584-7.049 6.189-7.049 1.43 0 3.374.433 3.46 1.145.058.679.027 1.422.027 1.822 0 .434-.084.65-.227.65-.286 0-.6-.588-.687-.71-.972-1.423-2.23-1.886-3.546-1.886-2.432 0-3.129 2.72-3.129 4.946 0 3.339 1.586 6.089 4.816 6.089 2.23 0 3.49-1.794 3.92-1.794.085 0 .227.093.227.186 0 .495-1.715 3.152-5.634 3.152-3.29 0-5.416-3.121-5.416-6.551" id="Fill-43" fill="#FFFFFE"/><path d="M285.892 11.027V3.065c0-.322-.154-.504-.31-.515-.394-.026-.898 1.08-2.772 1.53-.128.032-.61.073-.61.266 0 .676 1.944-.322 1.976 1.77v14.48c0 1.578-1.283 1.363-1.513 1.866-.041.219.076.322.255.322.411 0 1.54-.128 2.336-.128.796 0 1.921.294 2.46.294.307 0 .436-.064.436-.451-.268-.549-2.258.29-2.258-2.476v-6.787" id="Fill-44" fill="#FFFFFE"/><path d="M308.913 2.55c-2.523-.012-3.72 1.236-4.525 2.595-.388.656-.893 2.033-.9 4.009h-1.556c-.259.005-1.306 1.347-.964 1.345l.828.003h1.693l-.015 9.653c0 1.473-1.566 1.105-1.566 1.75 0 .246.358.185.521.185 0 0 1.511-.23 2.474-.231.96-.002 2.174.231 2.174.231.26 0 .685.091.685-.277 0-.676-2.316.062-2.316-1.904l.016-9.407h2.164l.757-.014c.137-.004.263-.248.348-.404.234-.429.648-1.126.648-1.216 0-.093.029-.393-.136-.393-.098 0-.454.679-1.272.679h-2.51c0-1.659-.045-2.041.034-2.952.124-1.434.79-2.35 2.048-2.38 2.053-.049 1.76 1.289 2.218 1.289.358 0 .489-1.332.489-1.915 0-.522-.912-.644-1.337-.646" id="Fill-45" fill="#FFFFFE"/><path d="M332.78 20.299c.134 2.42 2.12 1.355 2.12 2.362 0 .289-.35.289-.644.289-.51 0-1.449-.116-2.522-.116-.83 0-1.69.116-2.36.116-.24 0-.293-.144-.293-.259 0-.864 1.688-.231 1.662-2.363l-.268-11.18c0-.719-.136-1.122-.297-1.122-.187 0-.43.26-.697.863l-5.552 12.158c-.135.26-.562 1.443-.832 1.443-.266 0-.455-.634-.533-.836l-5.716-12.85c-.08-.23-.213-.317-.32-.317-.08 0-.16.145-.189.431l-.32 10.115c-.135 3.83 2.413 2.563 2.413 3.6 0 .288-.295.317-.67.317-.349 0-1.556-.116-2.361-.116-1.394 0-1.852.116-2.334.116-.186 0-.267-.144-.267-.345 0-.98 1.715.201 1.904-2.795.322-4.697.643-7.752.643-10.806 0-6.77-2.547-5.157-2.547-6.136 0-.26.215-.317.456-.317.483 0 .965.116 1.475.116.483 0 .965-.116 1.45-.116.374 0 .427.49.562.806l6.383 14.638c.294.605.402.864.59.864.133 0 .401-.606.83-1.557l6.383-13.77c.162-.318.376-1.01.698-.981.268 0 1.127.116 1.26.116.617 0 .86-.116 1.288-.116.161 0 .269.173.269.345 0 .923-2.145-.316-2.04 3.112l.376 14.29" id="Fill-46" fill="#FFFFFE"/><g id="Group-50"><mask id="mask-6" fill="#fff"><use xlink:href="#path-5"/></mask><path d="M353.769 13.313c0-2.25-1.73-3.527-3.806-3.527-2.706 0-3.918 2.677-3.918 5.201 0 2.523 1.73 6.174 4.467 6.174 2.392 0 3.257-1.55 3.257-2.645v-5.203zm0-7.567c0-1.826-2.276-1.034-2.276-1.673 0-.184.114-.304.259-.334 2.217-.548 2.962-1.665 3.626-1.665.173 0 .344.184.344.487v18.062c.007.434.08.379 1.016.405.204.005.491.017.463.258-.027.241-.507.65-1.3.658-.75.007-1.555.526-1.814.526-.232 0-.318-.245-.318-.456V20.34h-.058a5.347 5.347 0 01-4.237 2.129c-3.17 0-5.1-3.073-5.1-6.207 0-3.587 2.393-7.177 6.022-7.177a5.8 5.8 0 013.373 1.064V5.746z" id="Fill-47" fill="#FFFFFE" mask="url(#mask-6)"/><path d="M10.293 1.907h-.003c-.087.001-4.335.04-10.29-1.18v16.987c.003.268.007.459.007.46v.03c.04.789.277 1.417.75 1.954.312.332.748.678 1.354 1.013a9.259 9.259 0 001.008.476c.129.052.542.235.681.286l6.492 2.43 6.49-2.43c.139-.05.552-.234.681-.286h.001a9.036 9.036 0 001.007-.476c.607-.335 1.042-.681 1.355-1.013.473-.537.71-1.165.75-1.954v-.028l.007-.46V.726c-5.955 1.22-10.203 1.181-10.29 1.18" id="Fill-49" fill="#FFFFFE" mask="url(#mask-6)"/></g><path d="M10.202 2.804h-.003c-.08 0-3.938.036-9.349-1.104v15.884c.003.251.007.429.007.431v.027c.036.738.252 1.324.682 1.826.282.31.678.635 1.23.948.15.085.315.17.492.257.132.063.274.126.423.188.117.049.493.22.619.267L10.2 23.8l5.896-2.272c.126-.047.502-.218.62-.267.149-.062.29-.125.424-.188.176-.087.34-.172.491-.257.55-.313.947-.638 1.23-.948.43-.502.646-1.088.681-1.826v-.013l.001-.014.006-.43V1.7c-5.41 1.14-9.27 1.105-9.348 1.104" id="Fill-51" fill="#136A58"/><path d="M10.2 3.564c-.072.002-3.581.035-8.5-1.014v4.086c4.919 1.048 8.428 1.015 8.5 1.014.073 0 3.581.034 8.5-1.014V2.55c-4.919 1.049-8.427 1.016-8.5 1.014" id="Fill-52" fill="#DABFA4"/><path d="M10.2 7.825c-.072 0-3.581.035-8.5-1.025v9.174C6.619 17.034 10.128 17 10.2 17c.073 0 3.581.035 8.5-1.026V6.8c-4.919 1.06-8.427 1.026-8.5 1.025" id="Fill-53" fill="#912427"/><path d="M1.707 17.914v.012c.032.643.228 1.156.62 1.592.257.271.616.555 1.117.828a8.464 8.464 0 00.832.388c.107.043.448.192.564.233l5.36 1.983 5.361-1.983c.115-.041.457-.19.563-.233a9.28 9.28 0 00.385-.165c.16-.075.309-.148.448-.223.501-.273.86-.557 1.118-.828.39-.436.586-.949.618-1.592l.001-.023.006-.376V16.15c-4.919.995-8.427.963-8.5.962-.072.001-3.581.033-8.5-.962v1.377c.003.219.007.373.007.376v.011" id="Fill-54" fill="#DABFA4"/><path id="Fill-55" fill="#136A58" d="M5.1 3.4l.411 1.287 1.289.012-1.034.806.386 1.295L5.1 6.013 4.05 6.8l.386-1.295L3.4 4.699l1.29-.012L5.1 3.4"/><path id="Fill-56" fill="#136A58" d="M16.151 3.4l.41 1.287 1.289.012-1.034.806.387 1.295-1.052-.787L15.1 6.8l.387-1.295-1.036-.806 1.29-.012.411-1.287"/><path id="Fill-57" fill="#136A58" d="M10.2 4.25l.411 1.286 1.289.012-1.036.807.388 1.295-1.052-.787-1.05.787.386-1.295L8.5 5.548l1.29-.012.41-1.286"/><path id="Fill-58" fill="#136A58" d="M10.625 17l-.334.45v1.22l.172.642V20.4h.324v-1.088l.172-.643V17.45l-.334-.45"/><path id="Fill-59" fill="#136A58" d="M10.787 21.079V20.4h-.324v.679l-.172.44.334.581.334-.58-.172-.441"/><path id="Fill-60" fill="#136A58" d="M11.178 20.522v.372l.218.234.376-.302v-.304h-.594"/><path id="Fill-61" fill="#136A58" d="M11.577 18.7l-.527.603V20.4h.425v-.652l.413-.467.524.354.338-.354V18.7h-1.173"/><path id="Fill-62" fill="#136A58" d="M10.072 20.522v.372l-.217.234-.377-.302v-.304h.594"/><path id="Fill-63" fill="#136A58" d="M8.823 18.7l.527.603V20.4h-.424v-.652l-.414-.467-.525.354-.337-.354V18.7h1.173"/><path id="Fill-64" fill="#DABFA4" d="M14.596 9.35v5.34h-3.329l-.232.216-.41.383-.41-.383-.231-.217H6.655V9.35l-.705.558v5.537h3.921l.344.322.41.383.41-.383.345-.322h3.92V9.908l-.704-.558"/><path id="Fill-65" fill="#DABFA4" d="M10.755 9.35l-.13.107-.425.353-.427-.353-.129-.107H6.8v4.645h2.85l.2.165.35.29.35-.29.2-.165h2.85V9.35h-2.845"/><path d="M15.3 10.678V13.6a73.266 73.266 0 003.4-.479V10.2c-1.218.2-2.36.357-3.4.478" id="Fill-66" fill="#DABFA4"/><path d="M5.1 10.678a71.598 71.598 0 01-3.4-.478v2.921c1.218.201 2.358.357 3.4.479v-2.922" id="Fill-67" fill="#DABFA4"/><path id="Fill-68" fill="#136A58" d="M15.725 17l-.234.337v.915l.12.481v.817h.227v-.817l.121-.481v-.915L15.725 17"/><path id="Fill-69" fill="#136A58" d="M15.838 19.89v-.34h-.227v.34l-.12.22.234.29.234-.29-.12-.22"/><path id="Fill-70" fill="#136A58" d="M16.367 19.762v.261l.152.165.264-.212v-.214h-.416"/><path id="Fill-71" fill="#136A58" d="M16.413 17.85l-.263.301v.549h.212v-.326l.207-.233.262.177.169-.177v-.291h-.587"/><path id="Fill-72" fill="#136A58" d="M15.083 19.762v.261l-.152.165-.264-.212v-.214h.416"/><path id="Fill-73" fill="#136A58" d="M15.037 17.85l.263.301v.549h-.212v-.326l-.207-.233-.262.177-.169-.177v-.291h.587"/><path id="Fill-74" fill="#136A58" d="M4.675 17l-.234.337v.915l.12.481v.817h.228v-.817l.12-.481v-.915L4.675 17"/><path id="Fill-75" fill="#136A58" d="M4.789 19.89v-.34H4.56v.34l-.12.22.234.29.234-.29-.12-.22"/><path id="Fill-76" fill="#136A58" d="M5.317 19.762v.261l.151.165.265-.212v-.214h-.416"/><path id="Fill-77" fill="#136A58" d="M5.363 17.85l-.263.301v.549h.212v-.326l.207-.233.263.177.168-.177v-.291h-.587"/><path id="Fill-78" fill="#136A58" d="M4.033 19.762v.261l-.152.165-.264-.212v-.214h.416"/><path id="Fill-79" fill="#136A58" d="M3.987 17.85l.263.301v.549h-.212v-.326l-.207-.233-.262.177-.169-.177v-.291h.587"/></g></g></g></svg>